<svg xmlns="http://www.w3.org/2000/svg" width="900" height="900" viewBox="0 0 900 900">
  <metadata><?xpacket begin="﻿" id="W5M0MpCehiHzreSzNTczkc9d"?>
<x:xmpmeta xmlns:x="adobe:ns:meta/" x:xmptk="Adobe XMP Core 5.6-c138 79.159824, 2016/09/14-01:09:01        ">
   <rdf:RDF xmlns:rdf="http://www.w3.org/1999/02/22-rdf-syntax-ns#">
      <rdf:Description rdf:about=""/>
   </rdf:RDF>
</x:xmpmeta>
                                                                                                    
                                                                                                    
                                                                                                    
                                                                                                    
                                                                                                    
                                                                                                    
                                                                                                    
                                                                                                    
                                                                                                    
                                                                                                    
                                                                                                    
                                                                                                    
                                                                                                    
                                                                                                    
                                                                                                    
                                                                                                    
                                                                                                    
                                                                                                    
                                                                                                    
                                                                                                    
                           
<?xpacket end="w"?></metadata>
<defs>
    <style>
      .cls-1 {
        fill-rule: evenodd;
      }
    </style>
  </defs>
  <path id="ball" class="cls-1" d="M450.094,833.732c-211.729,0-383.982-172.253-383.982-383.982S238.365,65.768,450.094,65.768,834.076,238.021,834.076,449.75,661.822,833.732,450.094,833.732Zm323.832-331.42c-11.221-3.542-101.518-30.473-204.3-14.021,42.9,117.883,60.355,213.9,63.716,233.846C706.927,672.384,759.307,593.571,773.926,502.312ZM578.209,752.164c-4.878-28.775-23.921-129.061-69.967-248.719-0.722.246-1.442,0.48-2.164,0.731-184.992,64.462-251.4,192.752-257.3,204.818A327.516,327.516,0,0,0,578.209,752.164ZM206.43,669.548c7.429-12.718,97.442-161.757,266.594-216.433q6.412-2.073,12.924-3.9c-8.233-18.631-17.2-37.284-26.59-55.659-163.79,49.018-322.727,46.97-337.077,46.675-0.1,3.33-.167,6.668-0.167,10.022A326.674,326.674,0,0,0,206.43,669.548ZM129.042,383.076c14.669,0.193,149.8.78,303.213-39.961-54.344-96.6-112.954-177.824-121.6-189.682C218.9,196.713,150.309,281.3,129.042,383.076ZM373.235,131.388c9.066,12.138,68.634,93.258,122.379,192,116.625-43.713,166-110.073,171.9-118.475A327.584,327.584,0,0,0,373.235,131.388ZM703.971,242.843C697.057,252.2,642.1,322.652,520.83,372.162c7.632,15.623,14.948,31.512,21.76,47.506q3.621,8.5,7.065,16.926c109.132-13.722,217.566,8.27,228.379,10.557A326.422,326.422,0,0,0,703.971,242.843Z"/>
</svg>
