<?xml version="1.0" encoding="utf-8"?>
<!-- Generator: Adobe Illustrator 23.1.1, SVG Export Plug-In . SVG Version: 6.00 Build 0)  -->
<svg version="1.1" id="Layer_1" xmlns="http://www.w3.org/2000/svg" xmlns:xlink="http://www.w3.org/1999/xlink" x="0px" y="0px"
	 viewBox="0 0 1184 336" style="enable-background:new 0 0 1184 336;" xml:space="preserve">
<style type="text/css">
	.st0{display:none;}
	.st1{fill:url(#SVGID_1_);}
	.st2{fill:url(#SVGID_2_);}
	.st3{fill:url(#SVGID_3_);}
	.st4{fill:url(#SVGID_4_);}
	.st5{fill:url(#SVGID_5_);}
	.st6{fill:url(#SVGID_6_);}
	.st7{fill:url(#SVGID_7_);}
	.st8{fill:url(#SVGID_8_);}
	.st9{fill:url(#SVGID_9_);}
	.st10{fill:url(#SVGID_10_);}
	.st11{fill:url(#SVGID_11_);}
	.st12{fill:url(#SVGID_12_);}
	.st13{fill:url(#SVGID_13_);}
	.st14{fill:url(#SVGID_14_);}
	.st15{fill:url(#SVGID_15_);}
	.st16{fill:url(#SVGID_16_);}
	.st17{fill:url(#SVGID_17_);}
	.st18{fill:#1B161C;}
	.st19{fill:url(#SVGID_18_);}
	.st20{opacity:0.5;fill:#1B161C;}
	.st21{opacity:0.75;fill:#1B161C;}
	.st22{fill:url(#SVGID_19_);}
	.st23{fill:url(#SVGID_20_);}
	.st24{fill:url(#SVGID_21_);}
	.st25{fill:none;stroke:#3E3A3F;stroke-width:4;stroke-linecap:round;stroke-linejoin:round;}
	.st26{fill:none;stroke:#3E3A3F;stroke-width:4;stroke-linecap:round;stroke-linejoin:round;stroke-dasharray:1.9976,11.9853;}
	.st27{fill:#1B161C;stroke:#3E3A3F;stroke-width:8;stroke-linecap:round;stroke-linejoin:round;stroke-miterlimit:10;}
	.st28{fill:none;stroke:#3E3A3F;stroke-width:8;stroke-linecap:round;stroke-linejoin:round;stroke-miterlimit:10;}
	.st29{fill:#3E3A3F;}
	.st30{fill:none;stroke:#3E3A3F;stroke-width:4;stroke-linecap:round;stroke-linejoin:round;stroke-dasharray:2.0976,12.5854;}
	.st31{fill:none;stroke:#3E3A3F;stroke-width:4;stroke-linecap:round;stroke-linejoin:round;stroke-dasharray:2.3,13.8;}
	.st32{display:inline;}
	.st33{fill:none;stroke:#AF7248;stroke-width:5;stroke-linecap:round;stroke-linejoin:round;stroke-miterlimit:10;}
	.st34{display:inline;fill:none;stroke:#3E3A3F;stroke-width:8;stroke-linecap:round;stroke-linejoin:round;stroke-miterlimit:10;}
	.st35{fill:#1B161C;stroke:#3E3A3F;stroke-width:4;stroke-linecap:round;stroke-linejoin:round;stroke-miterlimit:10;}
	.st36{fill:none;stroke:#3E3A3F;stroke-width:4;stroke-linecap:round;stroke-linejoin:round;stroke-miterlimit:10;}
</style>
<g id="nqL6GL.tif" class="st0">
	
		<image style="display:inline;overflow:visible;" width="3360" height="1800" id="Layer_0_1_" xlink:href="B6EF43F5D33750.png"  transform="matrix(0.5 0 0 0.5 -248.3435 -391.4427)">
	</image>
</g>
<g>
	<g>
		<polyline class="st25" points="504,113 504,112 505,112 		"/>
		<path class="st26" d="M517,112h195c5.5,0,10,4.5,10,10v132c0,5.5-4.5,10-10,10H514c-5.5,0-10-4.5-10-10V119"/>
	</g>
</g>
<rect x="480" y="88" class="st27" width="224" height="160"/>
<rect x="480" y="88" class="st28" width="224" height="40"/>
<rect x="532" y="200" class="st28" width="120" height="24"/>
<line class="st28" x1="516" y1="152" x2="668" y2="152"/>
<line class="st28" x1="552" y1="108" x2="668" y2="108"/>
<line class="st28" x1="516" y1="176" x2="608" y2="176"/>
<g>
	<circle class="st29" cx="500" cy="108" r="4"/>
	<circle class="st29" cx="516" cy="108" r="4"/>
	<circle class="st29" cx="532" cy="108" r="4"/>
</g>
<g>
	<line class="st28" x1="288" y1="232" x2="424" y2="232"/>
	<circle class="st29" cx="308" cy="256" r="8"/>
	<circle class="st29" cx="340" cy="256" r="8"/>
	<circle class="st29" cx="372" cy="256" r="8"/>
	<circle class="st29" cx="404" cy="256" r="8"/>
	<path class="st28" d="M440,280V52c0-11-9-20-20-20H292c-11,0-20,9-20,20v228c0,8.8,7.2,16,16,16h136C432.8,296,440,288.8,440,280z"
		/>
	<path class="st28" d="M424,272V56c0-4.4-3.6-8-8-8H296c-4.4,0-8,3.6-8,8v216c0,4.4,3.6,8,8,8h120C420.4,280,424,276.4,424,272z"/>
	<line class="st28" x1="288" y1="80" x2="424" y2="80"/>
	<line class="st28" x1="334" y1="64" x2="382" y2="64"/>
	<line class="st28" x1="304" y1="176" x2="344" y2="176"/>
	<line class="st28" x1="360" y1="176" x2="384" y2="176"/>
	<line class="st28" x1="268" y1="88" x2="268" y2="121"/>
	<line class="st28" x1="448" y1="88" x2="448" y2="121"/>
	<line class="st28" x1="268" y1="137" x2="268" y2="169"/>
	<g>
		<rect x="304" y="96" class="st28" width="104" height="64"/>
		<circle class="st28" cx="368" cy="120" r="24"/>
		<polygon class="st27" points="304,136 328,112 352,136 360,128 374,144 408,112 408,160 304,160 		"/>
	</g>
	<g>
		<g>
			<g>
				<line class="st25" x1="264" y1="144" x2="263" y2="144"/>
				<line class="st30" x1="250.4" y1="144" x2="183.3" y2="144"/>
				<polyline class="st25" points="177,144 176,144 176,143 				"/>
				<line class="st31" x1="176" y1="129.2" x2="176" y2="103.9"/>
				<line class="st25" x1="176" y1="97" x2="176" y2="96"/>
			</g>
		</g>
		<g>
			<circle class="st28" cx="176" cy="72" r="24"/>
			<polyline class="st28" points="192,56 176,72 192,88 			"/>
			<line class="st28" x1="176" y1="72" x2="176" y2="48"/>
		</g>
	</g>
	<rect x="304" y="192" class="st28" width="104" height="40"/>
</g>
<g>
	<rect x="744" y="112" class="st27" width="264" height="184"/>
	<rect x="760" y="128" class="st27" width="232" height="152"/>
	<rect x="760" y="128" class="st27" width="55.5" height="152"/>
	<g>
		<g>
			<line class="st27" x1="832" y1="200" x2="840" y2="200"/>
		</g>
		<g>
			<line class="st27" x1="864" y1="200" x2="872" y2="200"/>
		</g>
		<g>
			<line class="st27" x1="832" y1="216" x2="840" y2="216"/>
		</g>
		<g>
			<line class="st27" x1="864" y1="216" x2="872" y2="216"/>
		</g>
		<g>
			<line class="st27" x1="832" y1="248" x2="840" y2="248"/>
		</g>
		<g>
			<line class="st27" x1="864" y1="248" x2="872" y2="248"/>
		</g>
		<g>
			<line class="st27" x1="896" y1="200" x2="936" y2="200"/>
		</g>
		<g>
			<line class="st27" x1="832" y1="264" x2="840" y2="264"/>
		</g>
		<g>
			<line class="st27" x1="864" y1="264" x2="872" y2="264"/>
		</g>
		<g>
			<line class="st27" x1="912" y1="232" x2="920" y2="232"/>
		</g>
		<g>
			<line class="st27" x1="912" y1="216" x2="920" y2="216"/>
		</g>
		<g>
			<line class="st27" x1="896" y1="264" x2="936" y2="264"/>
		</g>
		<g>
			<line class="st27" x1="912" y1="248" x2="920" y2="248"/>
		</g>
		<g>
			<line class="st27" x1="960" y1="216" x2="976" y2="216"/>
		</g>
		<g>
			<line class="st27" x1="960" y1="200" x2="976" y2="200"/>
		</g>
		<g>
			<line class="st27" x1="960" y1="232" x2="976" y2="232"/>
		</g>
		<g>
			<line class="st27" x1="832" y1="232" x2="872" y2="232"/>
		</g>
		<line class="st27" x1="960" y1="264" x2="976" y2="264"/>
	</g>
	<line class="st27" x1="832" y1="184" x2="976" y2="184"/>
	<line class="st27" x1="776" y1="184" x2="800" y2="184"/>
	<line class="st27" x1="776" y1="200" x2="784" y2="200"/>
	<line class="st28" x1="776" y1="224" x2="800" y2="224"/>
	<line class="st28" x1="776" y1="240" x2="800" y2="240"/>
	<line class="st28" x1="776" y1="256" x2="800" y2="256"/>
	<circle class="st27" cx="788" cy="156" r="12"/>
	<rect x="832" y="144" class="st27" width="64" height="24"/>
	<line class="st27" x1="920" y1="156" x2="952" y2="156"/>
	<line class="st27" x1="968" y1="156" x2="976" y2="156"/>
</g>
<g>
	<rect x="1008" y="128" transform="matrix(-1.836970e-16 1 -1 -1.836970e-16 1272 -920)" class="st27" width="176" height="96"/>
	<rect x="1080" y="88" transform="matrix(-1.836970e-16 1 -1 -1.836970e-16 1216 -976)" class="st28" width="32" height="64"/>
	<rect x="1080" y="136" transform="matrix(-1.836970e-16 1 -1 -1.836970e-16 1264 -928)" class="st28" width="32" height="64"/>
	<rect x="1080" y="184" transform="matrix(-1.836970e-16 1 -1 -1.836970e-16 1312 -880)" class="st28" width="32" height="64"/>
	<line class="st28" x1="1064" y1="248" x2="1128" y2="248"/>
</g>
<g class="st0">
	<g class="st32">
		<polyline class="st33" points="576.5,304 592.5,320 607.5,304 		"/>
	</g>
</g>
<g>
	<g>
		<path class="st28" d="M784,64H480c-4.4,0-8-3.6-8-8v0c0-4.4,3.6-8,8-8h304V64z"/>
		<line class="st28" x1="496" y1="48" x2="496" y2="64"/>
		<line class="st28" x1="512" y1="48" x2="512" y2="64"/>
		<polygon class="st28" points="784,48 808,56 784,64 		"/>
	</g>
	<line class="st28" x1="552" y1="32" x2="616" y2="32"/>
	<g>
		<path class="st28" d="M1024,72c-21.6,0-21.6-16-43.2-16c-21.6,0-21.6,16-43.2,16C916,72,916,56,894.4,56c-21.6,0-21.6,16-43.2,16
			c-21.6,0-21.6-16-43.2-16"/>
	</g>
</g>
<rect x="128" y="168" class="st28" width="104" height="128"/>
<rect x="144" y="184" class="st28" width="72" height="72"/>
<line class="st28" x1="144" y1="272" x2="200" y2="272"/>
<g>
	<polyline class="st28" points="136,144 136,128 152,128 	"/>
	<line class="st28" x1="136" y1="128" x2="152" y2="144"/>
</g>
<line class="st28" x1="160" y1="200" x2="160" y2="256"/>
<line class="st28" x1="176" y1="216" x2="176" y2="256"/>
<line class="st28" x1="192" y1="232" x2="192" y2="256"/>
<g>
	<g>
		<rect x="-24" y="152" transform="matrix(-1.836970e-16 1 -1 -1.836970e-16 240 112)" class="st27" width="176" height="48"/>
	</g>
	<line class="st27" x1="80" y1="104" x2="88" y2="104"/>
	<line class="st27" x1="80" y1="136" x2="88" y2="136"/>
	<line class="st27" x1="80" y1="152" x2="88" y2="152"/>
	<line class="st27" x1="80" y1="168" x2="88" y2="168"/>
	<line class="st27" x1="80" y1="168" x2="88" y2="168"/>
	<line class="st27" x1="64" y1="120" x2="88" y2="120"/>
	<line class="st27" x1="64" y1="184" x2="88" y2="184"/>
	<line class="st27" x1="80" y1="200" x2="88" y2="200"/>
	<line class="st27" x1="80" y1="216" x2="88" y2="216"/>
	<line class="st27" x1="80" y1="232" x2="88" y2="232"/>
	<line class="st27" x1="64" y1="248" x2="88" y2="248"/>
</g>
<g class="st0">
	<rect x="704" y="224" class="st34" width="40" height="40"/>
	<rect x="1008" y="224" class="st34" width="40" height="40"/>
	<rect x="440" y="224" class="st34" width="40" height="40"/>
	<rect x="232" y="224" class="st34" width="40" height="40"/>
	<rect x="88" y="224" class="st34" width="40" height="40"/>
	<rect y="224" class="st34" width="40" height="40"/>
	<rect x="1144" y="224" class="st34" width="40" height="40"/>
</g>
</svg>
