<?xml version="1.0" encoding="utf-8"?>
<!-- Generator: Adobe Illustrator 23.1.1, SVG Export Plug-In . SVG Version: 6.00 Build 0)  -->
<svg version="1.1" id="Layer_1" xmlns="http://www.w3.org/2000/svg" xmlns:xlink="http://www.w3.org/1999/xlink" x="0px" y="0px"
	 viewBox="0 0 1184 336" style="enable-background:new 0 0 1184 336;" xml:space="preserve">
<style type="text/css">
	.st0{display:none;}
	.st1{fill:url(#SVGID_1_);}
	.st2{fill:url(#SVGID_2_);}
	.st3{fill:url(#SVGID_3_);}
	.st4{fill:url(#SVGID_4_);}
	.st5{fill:url(#SVGID_5_);}
	.st6{fill:url(#SVGID_6_);}
	.st7{fill:url(#SVGID_7_);}
	.st8{fill:url(#SVGID_8_);}
	.st9{fill:url(#SVGID_9_);}
	.st10{fill:url(#SVGID_10_);}
	.st11{fill:url(#SVGID_11_);}
	.st12{fill:url(#SVGID_12_);}
	.st13{fill:url(#SVGID_13_);}
	.st14{fill:url(#SVGID_14_);}
	.st15{fill:url(#SVGID_15_);}
	.st16{fill:url(#SVGID_16_);}
	.st17{fill:url(#SVGID_17_);}
	.st18{fill:#1B161C;}
	.st19{fill:url(#SVGID_18_);}
	.st20{opacity:0.5;fill:#1B161C;}
	.st21{opacity:0.75;fill:#1B161C;}
	.st22{fill:url(#SVGID_19_);}
	.st23{fill:url(#SVGID_20_);}
	.st24{fill:url(#SVGID_21_);}
	.st25{fill:none;stroke:#272428;stroke-width:8;stroke-linecap:round;stroke-linejoin:round;stroke-miterlimit:10;}
	.st26{fill:#272428;}
	.st27{fill:#1B161C;stroke:#272428;stroke-width:8;stroke-linecap:round;stroke-linejoin:round;stroke-miterlimit:10;}
	.st28{fill:none;stroke:#272428;stroke-width:8;stroke-linecap:round;stroke-linejoin:round;}
	.st29{fill:none;stroke:#272428;stroke-width:8;stroke-linecap:round;stroke-linejoin:round;stroke-dasharray:2.5882,20.7059;}
	.st30{fill:none;stroke:#272428;stroke-width:8;stroke-linecap:round;stroke-linejoin:round;stroke-dasharray:4,32;}
	.st31{fill:none;stroke:#272428;stroke-width:8;stroke-linecap:round;stroke-linejoin:round;stroke-dasharray:3.7714,30.1714;}
	.st32{fill:none;stroke:#AF7248;stroke-width:8;stroke-linecap:round;stroke-linejoin:round;stroke-miterlimit:10;}
</style>
<g id="nqL6GL.tif" class="st0">
	
		<image style="display:inline;overflow:visible;" width="3360" height="1800" id="Layer_0_1_" xlink:href="B6EF43F5D33759.png"  transform="matrix(0.5 0 0 0.5 -248.3435 -391.4427)">
	</image>
</g>
<g>
	<line class="st25" x1="304" y1="248" x2="440" y2="248"/>
	<circle class="st26" cx="324" cy="272" r="8"/>
	<circle class="st26" cx="356" cy="272" r="8"/>
	<circle class="st26" cx="388" cy="272" r="8"/>
	<circle class="st26" cx="420" cy="272" r="8"/>
	<path class="st25" d="M458,296V68c0-11-9-20-20-20H308c-11,0-20,9-20,20v228c0,8.8,7.2,16,16,16h138C450.8,312,458,304.8,458,296z"
		/>
	<path class="st25" d="M440,288V72c0-4.4-3.6-8-8-8H312c-4.4,0-8,3.6-8,8v216c0,4.4,3.6,8,8,8h120C436.4,296,440,292.4,440,288z"/>
	<line class="st25" x1="304" y1="96" x2="440" y2="96"/>
	<line class="st25" x1="350" y1="80" x2="398" y2="80"/>
	<line class="st25" x1="320" y1="192" x2="360" y2="192"/>
	<line class="st25" x1="376" y1="192" x2="400" y2="192"/>
	<line class="st25" x1="284" y1="104" x2="284" y2="137"/>
	<line class="st25" x1="464" y1="104" x2="464" y2="137"/>
	<line class="st25" x1="284" y1="153" x2="284" y2="185"/>
	<g>
		<rect x="320" y="112" class="st25" width="104" height="64"/>
		<circle class="st25" cx="384" cy="136" r="24"/>
		<polygon class="st27" points="320,152 344,128 368,152 376,144 390,160 424,128 424,176 320,176 		"/>
	</g>
	<g>
		<g>
			<g>
				<line class="st28" x1="280" y1="168" x2="278" y2="168"/>
				<line class="st29" x1="257.3" y1="168" x2="244.4" y2="168"/>
				<polyline class="st28" points="234,168 232,168 232,166 				"/>
				<line class="st28" x1="232" y1="138" x2="232" y2="136"/>
			</g>
		</g>
		<g>
			<circle class="st25" cx="232" cy="96" r="24"/>
			<polyline class="st25" points="248,80 232,96 248,112 			"/>
			<line class="st25" x1="232" y1="96" x2="232" y2="72"/>
		</g>
	</g>
	<g>
		<path class="st25" d="M792,80H496c-4.4,0-8-3.6-8-8v0c0-4.4,3.6-8,8-8h296V80z"/>
		<line class="st25" x1="512" y1="64" x2="512" y2="80"/>
		<line class="st25" x1="528" y1="64" x2="528" y2="80"/>
		<polygon class="st25" points="792,64 816,72 792,80 		"/>
	</g>
	<line class="st25" x1="568" y1="48" x2="632" y2="48"/>
	<g>
		<g>
			<polyline class="st28" points="728,270 728,272 726,272 			"/>
			<line class="st30" x1="694" y1="272" x2="530" y2="272"/>
			<polyline class="st28" points="514,272 512,272 512,270 			"/>
			<line class="st31" x1="512" y1="239.8" x2="512" y2="153.1"/>
			<polyline class="st28" points="512,138 512,136 514,136 			"/>
			<line class="st30" x1="546" y1="136" x2="710" y2="136"/>
			<polyline class="st28" points="726,136 728,136 728,138 			"/>
			<line class="st31" x1="728" y1="168.2" x2="728" y2="254.9"/>
		</g>
	</g>
	<rect x="488" y="112" class="st27" width="216" height="136"/>
	<rect x="488" y="112" class="st25" width="216" height="40"/>
	<line class="st25" x1="520" y1="176" x2="672" y2="176"/>
	<rect x="536" y="200" class="st25" width="112" height="24"/>
	<path class="st26" d="M512,132c0,2.2-1.8,4-4,4s-4-1.8-4-4s1.8-4,4-4S512,129.8,512,132z M524,128c-2.2,0-4,1.8-4,4s1.8,4,4,4
		s4-1.8,4-4S526.2,128,524,128z M540,128c-2.2,0-4,1.8-4,4s1.8,4,4,4s4-1.8,4-4S542.2,128,540,128z M689.4,137.4
		c0.8-0.8,0.8-2,0-2.8l-8-8c-0.8-0.8-2-0.8-2.8,0s-0.8,2,0,2.8l8,8c0.4,0.4,0.9,0.6,1.4,0.6S689,137.8,689.4,137.4z M681.4,137.4
		l8-8c0.8-0.8,0.8-2,0-2.8s-2-0.8-2.8,0l-8,8c-0.8,0.8-0.8,2,0,2.8c0.4,0.4,0.9,0.6,1.4,0.6S681,137.8,681.4,137.4z"/>
	<rect x="320" y="208" class="st25" width="104" height="40"/>
	<g>
		<g>
			<rect x="752" y="112" class="st27" width="336" height="200"/>
			<rect x="768" y="128" class="st27" width="304" height="168"/>
			<rect x="768" y="128" class="st27" width="63.5" height="168"/>
			<g>
				<g>
					<line class="st27" x1="856" y1="208" x2="872" y2="208"/>
				</g>
				<g>
					<line class="st27" x1="904" y1="208" x2="920" y2="208"/>
				</g>
				<g>
					<line class="st27" x1="856" y1="224" x2="872" y2="224"/>
				</g>
				<g>
					<line class="st27" x1="904" y1="224" x2="920" y2="224"/>
				</g>
				<g>
					<line class="st27" x1="856" y1="256" x2="872" y2="256"/>
				</g>
				<g>
					<line class="st27" x1="904" y1="256" x2="920" y2="256"/>
				</g>
				<g>
					<line class="st27" x1="952" y1="208" x2="1000" y2="208"/>
				</g>
				<g>
					<line class="st27" x1="856" y1="272" x2="872" y2="272"/>
				</g>
				<g>
					<line class="st27" x1="904" y1="272" x2="920" y2="272"/>
				</g>
				<g>
					<line class="st27" x1="968" y1="240" x2="984" y2="240"/>
				</g>
				<g>
					<line class="st27" x1="968" y1="224" x2="984" y2="224"/>
				</g>
				<g>
					<line class="st27" x1="952" y1="272" x2="1000" y2="272"/>
				</g>
				<g>
					<line class="st27" x1="968" y1="256" x2="984" y2="256"/>
				</g>
				<g>
					<line class="st27" x1="1032" y1="224" x2="1048" y2="224"/>
				</g>
				<g>
					<line class="st27" x1="1032" y1="208" x2="1048" y2="208"/>
				</g>
				<g>
					<line class="st27" x1="1032" y1="240" x2="1048" y2="240"/>
				</g>
				<g>
					<line class="st27" x1="856" y1="240" x2="920" y2="240"/>
				</g>
				<line class="st27" x1="1032" y1="272" x2="1048" y2="272"/>
			</g>
			<line class="st27" x1="848" y1="184" x2="1056" y2="184"/>
			<line class="st27" x1="784" y1="184" x2="816" y2="184"/>
			<line class="st27" x1="784" y1="184" x2="816" y2="184"/>
			<line class="st27" x1="784" y1="200" x2="800" y2="200"/>
			<line class="st25" x1="784" y1="224" x2="816" y2="224"/>
			<line class="st25" x1="784" y1="240" x2="816" y2="240"/>
			<line class="st25" x1="784" y1="256" x2="816" y2="256"/>
			<circle class="st27" cx="800" cy="156" r="12"/>
		</g>
		<rect x="856" y="144" class="st27" width="64" height="24"/>
		<g>
			<polyline class="st18" points="936,148 948.8,164 961.6,148 974.4,164 987.2,148 1000,164 			"/>
			<polyline class="st25" points="936,148 948.8,164 961.6,148 974.4,164 987.2,148 1000,164 			"/>
		</g>
		<line class="st27" x1="1016" y1="148" x2="1056" y2="148"/>
		<line class="st27" x1="1016" y1="164" x2="1032" y2="164"/>
	</g>
	<g>
		<polygon class="st27" points="238,290 43.7,201.4 69.7,142.9 264,231.5 		"/>
		<rect x="24" y="232" class="st27" width="240" height="64"/>
		<rect x="40" y="248" class="st25" width="32" height="32"/>
		<rect x="88" y="248" class="st25" width="32" height="32"/>
		<rect x="136" y="248" class="st25" width="32" height="32"/>
		<rect x="184" y="248" class="st25" width="32" height="32"/>
		<circle class="st25" cx="240" cy="264" r="8"/>
		<line class="st27" x1="88" y1="192" x2="176" y2="232"/>
	</g>
	<g>
		<polyline class="st32" points="576,312 592,328 607,312 		"/>
	</g>
	<g>
		<path class="st25" d="M816,72c27.2,0,27.2,16,54.4,16c27.2,0,27.2-16,54.4-16c27.2,0,27.2,16,54.4,16c27.2,0,27.2-16,54.4-16
			s27.2,16,54.4,16"/>
	</g>
</g>
</svg>
