<svg id="Layer_1" data-name="Layer 1" xmlns="http://www.w3.org/2000/svg" viewBox="0 0 900 900"><title>instagram</title><path d="M450,135.13c102.55,0,114.7.39,155.2,2.24,37.45,1.71,57.78,8,71.32,13.22,17.93,7,30.72,15.29,44.16,28.73s21.76,26.23,28.73,44.16c5.26,13.53,11.52,33.87,13.22,71.32,1.85,40.5,2.24,52.65,2.24,155.2s-.39,114.7-2.24,155.2c-1.71,37.45-8,57.78-13.22,71.32-7,17.93-15.29,30.72-28.73,44.16s-26.23,21.76-44.16,28.73c-13.53,5.26-33.87,11.52-71.32,13.22-40.49,1.85-52.64,2.24-155.2,2.24s-114.71-.39-155.2-2.24c-37.45-1.71-57.78-8-71.32-13.22-17.93-7-30.72-15.29-44.16-28.73s-21.76-26.23-28.73-44.16c-5.26-13.53-11.52-33.87-13.22-71.32-1.85-40.5-2.24-52.65-2.24-155.2s.39-114.7,2.24-155.2c1.71-37.45,8-57.78,13.22-71.32,7-17.93,15.29-30.72,28.73-44.16s26.23-21.76,44.16-28.73c13.53-5.26,33.87-11.52,71.32-13.22,40.5-1.85,52.65-2.24,155.2-2.24m0-69.2c-104.31,0-117.39.44-158.35,2.31s-68.8,8.36-93.23,17.85c-25.26,9.82-46.68,22.95-68,44.3s-34.48,42.77-44.3,68c-9.49,24.43-16,52.35-17.85,93.23s-2.31,54-2.31,158.35.44,117.39,2.31,158.35,8.36,68.8,17.85,93.23c9.82,25.26,22.95,46.68,44.3,68s42.77,34.48,68,44.3c24.43,9.49,52.35,16,93.23,17.85s54,2.31,158.35,2.31,117.39-.44,158.35-2.31,68.8-8.36,93.23-17.85c25.26-9.82,46.68-22.95,68-44.3s34.48-42.77,44.3-68c9.49-24.43,16-52.35,17.85-93.23s2.31-54,2.31-158.35-.44-117.39-2.31-158.35-8.36-68.8-17.85-93.23c-9.82-25.26-22.95-46.68-44.3-68s-42.77-34.48-68-44.3c-24.43-9.49-52.35-16-93.23-17.85s-54-2.31-158.35-2.31Z"/><path d="M450,252.77c-108.93,0-197.23,88.3-197.23,197.23S341.07,647.23,450,647.23,647.23,558.93,647.23,450,558.93,252.77,450,252.77ZM450,578A128,128,0,1,1,578,450,128,128,0,0,1,450,578Z"/><circle cx="655.02" cy="244.98" r="46.09"/></svg>