<?xml version="1.0" encoding="utf-8"?>
<!-- Generator: Adobe Illustrator 24.0.1, SVG Export Plug-In . SVG Version: 6.00 Build 0)  -->
<svg version="1.1" id="Layer_1" xmlns="http://www.w3.org/2000/svg" xmlns:xlink="http://www.w3.org/1999/xlink" x="0px" y="0px"
	 viewBox="0 0 900 900" style="enable-background:new 0 0 900 900;" xml:space="preserve">
<path id="Brandmark" d="M416.7,493.2L222.5,763.7c-9.9,13.9-26.7,21.1-43.6,19c-19.3-2.4-45.8-9.6-73.2-29.2s-42.7-42.4-51.1-59.9
	c-7.4-15.4-5.9-33.5,4.1-47.4l194.1-270.5c9.2-12.9,21.4-23.4,35.4-30.8l38.2-20.1c7.7-4,14.5-9.4,20.3-15.9
	c18.5-21,68.3-76,156.5-164.9l1.5-7.1c0.4-1.6,1.6-2.9,3.2-3.3l4.9-1.2c2.1-0.5,3.5-2.5,3.4-4.7l-0.5-6c-0.2-2.5,1.7-4.7,4.2-4.7
	c5.9-0.2,17.3,1.5,33.4,13.1c16.1,11.5,21.3,21.8,23.1,27.4c0.7,2.4-0.7,4.9-3.2,5.5l-5.8,1.4c-2.1,0.5-3.6,2.5-3.4,4.7l0.4,5
	c0.1,1.7-0.7,3.2-2.1,4.1l-6.2,3.7c-56,112.1-92.1,176.8-106.1,201.1c-4.3,7.5-7.2,15.7-8.6,24.3l-6.8,42.6
	C432,465.5,425.9,480.3,416.7,493.2z M841.3,646.2L647.2,375.6c-9.2-12.9-21.4-23.4-35.4-30.8l-38.2-20.1c-7.7-4-14.5-9.4-20.3-15.9
	c-4.6-5.1-11.1-12.5-19.6-21.8c-1.3-1.5-3.8-1.1-4.7,0.6c-29.4,56.3-49.2,91.6-58.2,107.2c-2.9,5-4.8,10.4-5.7,16.1l0,0
	c-1.9,12.2-1.9,24.5,0,36.7l0.3,2.1c2.5,15.7,8.6,30.5,17.9,43.4l194.1,270.5c9.9,13.7,26.3,21.1,43.1,19.1
	c19.3-2.3,46-9.5,73.6-29.3c27.4-19.6,42.7-42.4,51.1-59.9C852.8,678.2,851.2,660,841.3,646.2z M326.9,162.9l5.8,1.4
	c2.1,0.5,3.6,2.5,3.4,4.7l-0.4,5c-0.1,1.7,0.7,3.2,2.1,4.1l6.2,3.7c10.4,20.7,20,39.7,28.9,57.2c0.9,1.7,3,2,4.3,0.6
	c14.6-15.6,32.1-34.1,52.8-55.5c1.7-1.8,1.8-4.6,0.1-6.3c-10.5-10.7-21.5-21.9-33.4-33.9l-1.5-7.1c-0.4-1.6-1.6-2.9-3.2-3.3
	l-4.9-1.2c-2.1-0.5-3.5-2.5-3.4-4.7l0.5-6c0.2-2.5-1.6-4.7-4.1-4.7c-5.8-0.2-17.3,1.5-33.4,13.1c-16.1,11.5-21.3,21.8-23.1,27.4
	C323,159.8,324.5,162.3,326.9,162.9z"/>
</svg>
